<svg xmlns="http://www.w3.org/2000/svg" viewBox="0 0 500 500" width="330mm" height="330mm" >
	<!-- Hand-crafted by koodiosasto under supervision of visutiimi -->
	<!-- Please don't 'dobestroy the gradient now -->
	<defs>
		<style>
			path {
				fill: #fff;
			}
		</style>
		<radialGradient id="gradient" gradientTransform="translate(0,-.3125)">
			<stop offset="25%" stop-color="#F7B535"/>
			<stop offset="75%" stop-color="#E9425C"/>
			<stop offset="100%" stop-color="#E61D72"/>
		</radialGradient>
		<clipPath id="circle">
			<circle cx="50%" cy="50%" r="50%" fill="url(#gradient)"/>
		</clipPath>
	</defs>
	<rect x="-50%" y="-50%" width="200%" height="200%" fill="url(#gradient)" clip-path="url(#circle)"/>
	<path d="M202.1 117.6c-1.3 0-2.4.5-3.3 1.4-.9.9-1.4 2-1.4 3.3v101.4a5.3 5.3 0 0 1-5.3 5.3h-14c-1.5 0-2.8-.6-3.8-1.6s-1.6-2.2-1.7-3.7V122.3c0-1.3-.5-2.4-1.3-3.3a4 4 0 0 0-3.2-1.4H151c-1.3 0-2.4.5-3.3 1.4-.8.9-1.2 2-1.3 3.3v101.4c0 1.5-.6 2.7-1.6 3.7s-2.3 1.5-3.9 1.6h-12.4a5.3 5.3 0 0 1-5.3-5.3V122.3c0-1.3-.5-2.4-1.4-3.3-.9-1-2-1.4-3.3-1.4h-17.1c-1.3 0-2.4.5-3.2 1.4a5 5 0 0 0-1.4 3.3v101.4a31.6 31.6 0 0 0 31.7 31.6H141a33.2 33.2 0 0 0 17.7-5.5c.6-.4 1.2-.4 1.8 0a30.8 30.8 0 0 0 17.7 5.5h14a31.6 31.6 0 0 0 31.7-31.6V122.3c0-1.3-.5-2.4-1.4-3.3-.9-1-2-1.4-3.3-1.4h-17Z"/>
	<path d="M246.4 117.6c-1.3 0-2.4.5-3.2 1.4-.8.9-1.3 2-1.3 3.3v17c0 1.3.5 2.4 1.3 3.3.8.9 2 1.3 3.2 1.4h21.9c.4 0 .7 0 1 .4.2.2.3.6.3 1.1v105.1c0 1.3.5 2.4 1.4 3.3 1 1 2 1.4 3.4 1.4h17c1.4 0 2.5-.5 3.3-1.4.8-.9 1.3-2 1.3-3.3v-105c0-.6.2-1 .5-1.2.3-.3.7-.4 1-.5h21.7c1.3 0 2.4-.4 3.3-1.3 1-1 1.4-2 1.4-3.4v-16.9c0-1.3-.5-2.4-1.4-3.3-.9-1-2-1.4-3.3-1.4h-72.8Z"/>
	<path d="M373.6 117.6a31.6 31.6 0 0 0-31.7 31.7v101.3a5 5 0 0 0 1.3 3.4c.9.8 2 1.3 3.2 1.3h17.2c1.3 0 2.4-.5 3.3-1.4a5 5 0 0 0 1.4-3.3v-49.4c0-.5.1-.8.4-1.1.2-.3.6-.4 1-.5h33.6c1.3 0 2.4-.4 3.3-1.3 1-1 1.4-2 1.4-3.4V178c0-1.3-.5-2.4-1.4-3.3-.9-1-2-1.4-3.3-1.4h-33.6c-.4 0-.8-.2-1-.4-.3-.3-.4-.7-.4-1.2v-22.4c0-1.5.5-2.8 1.5-3.8s2.3-1.5 3.8-1.5h29.7c1.3 0 2.4-.5 3.3-1.4 1-1 1.4-2 1.4-3.4v-16.9c0-1.3-.5-2.4-1.4-3.3-.9-.9-2-1.4-3.3-1.4h-29.7Z"/>
	<path d="M101.2 356.6V326a7.6 7.6 0 0 1 7.6-7.7h14.8a5 5 0 0 1 3.6 1.5c1 1 1.4 2.2 1.5 3.7v33a7.6 7.6 0 0 1-7.7 7.7h-12.2a7.6 7.6 0 0 1-7.6-7.6m30.5-72.7a3 3 0 0 0-2.1 1 3 3 0 0 0-1 2.1v17a5 5 0 0 1-5 5.2H109A17 17 0 0 0 92 326v30.6c.2 4.7 1.8 8.7 5 11.9s7.2 4.8 12 5h12a16.8 16.8 0 0 0 16.9-17V287a3 3 0 0 0-1-2.2 3 3 0 0 0-2-.9h-3.1Z"/>
	<path d="M191.5 332.1a7.6 7.6 0 0 1-7.7 7.7H164V326a7.6 7.6 0 0 1 7.6-7.7h12.2a7.6 7.6 0 0 1 7.7 7.7v6.1Zm-19.9-22.9a17 17 0 0 0-16.8 16.8v30.6a16.8 16.8 0 0 0 16.8 16.8h21.5a3 3 0 0 0 3-3v-3a3 3 0 0 0-.8-2.2 3 3 0 0 0-2.2-1h-21.5a7.6 7.6 0 0 1-7.7-7.7V349h19.9a16.8 16.8 0 0 0 16.9-16.9V326a16.7 16.7 0 0 0-16.9-16.8h-12.2Z"/>
	<path d="M231.6 309.2a17 17 0 0 0-16.9 16.8v3a16.9 16.9 0 0 0 17 17h7.3a7.7 7.7 0 0 1 7.7 7.5v3a7.6 7.6 0 0 1-7.7 7.7h-18.8a3 3 0 0 0-2.2 1 3 3 0 0 0-1 2.1v3a3 3 0 0 0 1 2.2 3 3 0 0 0 2.2 1H239a16.8 16.8 0 0 0 17-17v-3a17 17 0 0 0-16.9-16.8h-7.5a7.7 7.7 0 0 1-7.7-7.7v-3c0-2.2.8-4 2.3-5.5a7.6 7.6 0 0 1 5.4-2.2h18a3 3 0 0 0 2.2-.9 3 3 0 0 0 .8-2.2v-3c0-.9-.3-1.6-.8-2.1a3 3 0 0 0-2.2-.9h-18Z"/>
	<path d="M275 290.9a3 3 0 0 0-2.2 1 3 3 0 0 0-1 2v5.1a3 3 0 0 0 1 2.2 3 3 0 0 0 2.1 1h4a3 3 0 0 0 2.2-1 3 3 0 0 0 1-2.2v-5a3 3 0 0 0-1-2.2 3 3 0 0 0-2.2-.9h-4Zm.4 18.3a3.1 3.1 0 0 0-3.1 2.9v58.3a3 3 0 0 0 1 2.1 3 3 0 0 0 2.1 1h3a3 3 0 0 0 2.2-1 3 3 0 0 0 1-2.1v-58.2c0-.9-.4-1.6-1-2.1-.6-.6-1.3-.9-2.1-.9h-3.1Z"/>
	<path d="M309.2 356.6V326a7.6 7.6 0 0 1 7.7-7.7H329a7.6 7.6 0 0 1 7.7 7.7v33a5 5 0 0 1-5 5.1h-14.8c-2.2 0-4-.8-5.5-2.2a7.7 7.7 0 0 1-2.2-5.5m7.7-47.3a17 17 0 0 0-17 16.8v30.6a16.8 16.8 0 0 0 17 16.8h14.7a5 5 0 0 1 5 5v5.8a7.7 7.7 0 0 1-7.6 7.7h-1.5c-.9 0-1.6.3-2.2.8-.6.6-.9 1.3-.9 2.1v3a3 3 0 0 0 1 2.3c.5.6 1.2.8 2 .9h1.6a17 17 0 0 0 12-5c3.1-3 4.8-7 4.9-11.8V326a17 17 0 0 0-16.9-16.8h-12Z"/>
	<path d="M379.1 309.2a17 17 0 0 0-16.9 16.8v44.4a3 3 0 0 0 1 2.1 3 3 0 0 0 2.1 1h3a3 3 0 0 0 2.2-1 3 3 0 0 0 1-2.1V326a7.6 7.6 0 0 1 7.6-7.7h11a7.6 7.6 0 0 1 7.7 7.7v44.4a3 3 0 0 0 .9 2.1 3 3 0 0 0 2.2 1h3c.9 0 1.6-.4 2.2-1s.9-1.3.9-2.1V326a17 17 0 0 0-16.9-16.8h-11Z"/>
</svg>
